<svg xmlns="http://www.w3.org/2000/svg" viewBox="2558.104 279.931 112.982 28.755">
  <defs>
    <style>
      .cls-1 {
        fill: #fff;
      }
    </style>
  </defs>
  <path id="パス_3" data-name="パス 3" class="cls-1" d="M18.776-19.138a3.8,3.8,0,0,0-1.152-3.123,5,5,0,0,0-3.228-.933H8.931v8.265H14.4a4.739,4.739,0,0,0,3.228-1.009A4.041,4.041,0,0,0,18.776-19.138Zm5.808-.038q0,4.97-2.514,7.027t-7.179,2.057H8.931V0H3.1V-28.069H15.33A9.958,9.958,0,0,1,22.071-25.9Q24.584-23.728,24.584-19.176ZM34.087,0H28.66V-28.069h5.427ZM50.826-10.093a5.9,5.9,0,0,1-1.038.524A8.679,8.679,0,0,1,48.35-9.2l-1.219.229a7.87,7.87,0,0,0-2.457.743,2.489,2.489,0,0,0-1.257,2.3,2.426,2.426,0,0,0,.771,2.009,2.9,2.9,0,0,0,1.876.619,5.527,5.527,0,0,0,3.228-1.028q1.476-1.028,1.533-3.751Zm-3.294-2.533a8.471,8.471,0,0,0,2.152-.476,1.632,1.632,0,0,0,1.162-1.542,1.83,1.83,0,0,0-.885-1.761,5.532,5.532,0,0,0-2.6-.486,3.386,3.386,0,0,0-2.723.952,3.958,3.958,0,0,0-.762,1.9H38.638a7.965,7.965,0,0,1,1.523-4.475q2.152-2.742,7.389-2.742A13.127,13.127,0,0,1,53.606-19.9q2.647,1.352,2.647,5.1v9.521q0,.99.038,2.4a3.017,3.017,0,0,0,.324,1.447,1.946,1.946,0,0,0,.8.628V0h-5.9a6.045,6.045,0,0,1-.343-1.181q-.1-.552-.152-1.257a11.151,11.151,0,0,1-2.59,2.076A7.79,7.79,0,0,1,44.465.647,6.81,6.81,0,0,1,39.809-.962a5.739,5.739,0,0,1-1.838-4.561,5.92,5.92,0,0,1,2.952-5.542A13.106,13.106,0,0,1,45.684-12.4Zm25.042-8.626a8.012,8.012,0,0,1,5.265,1.685q2.047,1.685,2.047,5.589V0H74.325V-12.625a5.761,5.761,0,0,0-.438-2.514,3.081,3.081,0,0,0-3.047-1.6A3.779,3.779,0,0,0,67.05-14.4a8.045,8.045,0,0,0-.533,3.161V0H61.109V-20.719h5.237v3.028a9.213,9.213,0,0,1,1.98-2.3A6.883,6.883,0,0,1,72.573-21.252Zm20.509,4.418a3.686,3.686,0,0,0-2.923,1.181,5.893,5.893,0,0,0-1.3,3.2h8.436a4.724,4.724,0,0,0-1.3-3.266A4.051,4.051,0,0,0,93.082-16.834Zm0-4.475a10.878,10.878,0,0,1,4.666.971,8.173,8.173,0,0,1,3.428,3.066,10.461,10.461,0,0,1,1.581,4.285,27.671,27.671,0,0,1,.171,4.113H88.721q.114,3.123,1.961,4.38a4.62,4.62,0,0,0,2.7.781,3.892,3.892,0,0,0,2.723-.952,4.522,4.522,0,0,0,1.009-1.428h5.542a6.885,6.885,0,0,1-1.923,3.751A9.423,9.423,0,0,1,93.272.686a10.526,10.526,0,0,1-6.989-2.552q-3.028-2.552-3.028-8.3,0-5.389,2.733-8.265A9.343,9.343,0,0,1,93.082-21.309ZM104.451-16.7v-3.866h2.895v-5.789h5.37v5.789h3.371V-16.7h-3.371V-5.732a2.47,2.47,0,0,0,.324,1.59,3.565,3.565,0,0,0,1.98.314q.248,0,.524-.01t.543-.029V.19l-2.571.1q-3.847.133-5.256-1.333a3.969,3.969,0,0,1-.914-2.875V-16.7Z" transform="translate(2555 308)"/>
</svg>
